<svg viewBox="0 0 500 500" xmlns="http://www.w3.org/2000/svg" xmlns:bx="https://boxy-svg.com">
  <defs></defs>
  <path style="stroke: rgb(0, 0, 0); paint-order: fill; stroke-linecap: round; fill: rgb(245, 245, 245); stroke-width: 24px;" d="M 407.732 128.926 L 407.732 115.14716666666665 C 407.732 101.36833333333333 407.732 73.81066666666666 398.43516666666665 52.8555 C 389.1383333333333 31.900333333333332 370.54466666666667 17.547666666666668 346.97049999999996 10.945333333333332 C 323.39633333333336 4.343 294.84166666666664 5.491 277.90799999999996 15.537833333333333 C 260.97433333333333 25.584666666666667 255.66166666666663 44.53033333333334 253.3375 85.86633333333333 C 251.01333333333332 127.20233333333333 251.67766666666668 190.9286666666667 252.34183333333337 235.70950000000002 C 253.006 280.49033333333335 253.67 306.3256666666667 254.00200000000004 305.1775 C 254.33399999999997 304.02933333333334 254.33399999999997 275.8976666666667 240.7206666666667 261.83183333333335 C 227.10733333333334 247.766 199.88066666666668 247.766 174.64633333333336 247.47916666666666 C 149.412 247.19233333333332 126.17 246.61866666666666 104.25583333333333 248.91516666666666 C 82.34166666666665 251.21166666666667 61.75533333333333 256.37833333333333 46.48166666666666 266.13800000000003 C 31.208 275.8976666666667 21.247 290.25033333333334 15.602666666666664 306.03850000000006 C 9.958333333333334 321.82666666666665 8.630666666666666 339.05033333333336 8.298833333333333 355.6996666666667 C 7.967 372.349 8.631 388.424 8.963 406.22150000000005 C 9.295 424.019 9.295 443.53900000000004 21.912166666666668 457.89183333333335 C 34.529333333333334 472.24466666666666 59.763666666666666 481.4303333333333 96.95116666666667 484.87483333333336 C 134.13866666666667 488.31933333333336 183.2793333333333 486.0226666666667 230.75966666666667 486.59683333333334 C 278.24 487.171 324.06 490.616 353.6106666666667 490.32916666666665 C 383.1613333333333 490.0423333333333 396.44266666666664 486.02366666666666 402.4191666666666 469.0873333333334 C 408.3956666666666 452.151 407.06733333333335 422.297 406.40316666666666 407.37000000000006 C 405.739 392.443 405.739 392.443 405.739 392.443 C 405.739 392.443 405.739 392.443 405.739 358.8575 C 405.739 325.272 405.739 258.101 405.739 224.5155 L 405.739 190.93" bx:d="M 407.732 128.926 U 407.732 46.253 U 351.951 3.195 U 266.287 6.639 U 250.349 63.476 U 252.342 254.655 U 254.334 332.161 U 254.334 247.766 U 172.654 247.766 U 102.928 246.045 U 41.169 261.545 U 11.286 304.603 U 7.303 356.274 U 9.295 404.499 U 9.295 463.059 U 84.998 490.616 U 232.42 483.726 U 369.88 494.061 U 409.724 482.005 U 405.739 392.443 U 405.739 392.443 U 405.739 392.443 U 405.739 190.93 1@081e233e"></path>
  <path style="fill: rgb(216, 216, 216); stroke-linecap: round; stroke: rgb(255, 119, 0); stroke-width: 19px;" d="M 362.584 159.819 L 481.685 159.819" bx:d="M 362.584 159.819 U 481.685 159.819 1@e6ca41d6"></path>
  <path style="stroke-linecap: round; stroke-miterlimit: 26; stroke-width: 14px; stroke: rgb(50, 27, 18); fill: rgba(216, 216, 216, 0);" d="M 297.149 86.212 C 302.406 82.707 310.615 79.375 313.313 73.98 C 314.15 72.306 320.408 71.254 322.05 69.612 C 324.255 67.407 328.097 68.37 329.913 66.554 C 330.158 66.309 331.951 66.846 332.098 66.554 C 333.106 64.537 345.938 62.771 349.135 64.369 C 353.243 66.424 361.216 70.485 364.862 70.485"></path>
  <ellipse style="stroke: rgb(0, 0, 0); stroke-width: 8px; paint-order: fill; stroke-miterlimit: 14; fill-rule: nonzero;" cx="350.897" cy="111.75" rx="17.02" ry="15.609"></ellipse>
</svg>
